HIERARCHY
ROOT Hips
{
	OFFSET -21.947001 39.810204 44.525997
	CHANNELS 6 Xposition Yposition Zposition Zrotation Xrotation Yrotation
	JOINT Chest
	{
		OFFSET -0.201599 0.334099 6.453201
		CHANNELS 6 Xposition Yposition Zposition Zrotation Xrotation Yrotation
		JOINT Chest2
		{
			OFFSET 0.000000 0.000000 3.568001
			CHANNELS 6 Xposition Yposition Zposition Zrotation Xrotation Yrotation
			JOINT Neck
			{
				OFFSET 0.000000 0.000000 8.296402
				CHANNELS 6 Xposition Yposition Zposition Zrotation Xrotation Yrotation
				JOINT Head
				{
					OFFSET 0.000000 0.000000 2.173901
					CHANNELS 6 Xposition Yposition Zposition Zrotation Xrotation Yrotation
					End Site
					{
						OFFSET 0.000000 0.000000 7.891998
					}
				}
			}
			JOINT LeftCollar
			{
				OFFSET 1.927601 0.221401 6.049000
				CHANNELS 6 Xposition Yposition Zposition Zrotation Xrotation Yrotation
				JOINT LeftShoulder
				{
					OFFSET 4.959700 0.000000 0.000000
					CHANNELS 6 Xposition Yposition Zposition Zrotation Xrotation Yrotation
					JOINT LeftElbow
					{
						OFFSET 0.000000 0.000000 -8.654202
						CHANNELS 6 Xposition Yposition Zposition Zrotation Xrotation Yrotation
						JOINT LeftWrist
						{
							OFFSET 0.000000 0.000000 -13.864101
							CHANNELS 6 Xposition Yposition Zposition Zrotation Xrotation Yrotation
							End Site
							{
								OFFSET 0.000000 0.000000 -2.173901
							}
						}
					}
				}
			}
			JOINT RightCollar
			{
				OFFSET -3.155701 -0.764999 6.687801
				CHANNELS 6 Xposition Yposition Zposition Zrotation Xrotation Yrotation
				JOINT RightShoulder
				{
					OFFSET -3.592899 0.000000 0.000000
					CHANNELS 6 Xposition Yposition Zposition Zrotation Xrotation Yrotation
					JOINT RightElbow
					{
						OFFSET 0.000000 0.000000 -10.352398
						CHANNELS 6 Xposition Yposition Zposition Zrotation Xrotation Yrotation
						JOINT RightWrist
						{
							OFFSET 0.000000 0.000000 -12.750301
							CHANNELS 6 Xposition Yposition Zposition Zrotation Xrotation Yrotation
							End Site
							{
								OFFSET 0.000000 0.000000 -2.173901
							}
						}
					}
				}
			}
		}
	}
	JOINT LeftHip
	{
		OFFSET 2.460600 -0.518101 -2.735500
		CHANNELS 6 Xposition Yposition Zposition Zrotation Xrotation Yrotation
		JOINT LeftKnee
		{
			OFFSET 0.000000 -0.000004 -17.005899
			CHANNELS 6 Xposition Yposition Zposition Zrotation Xrotation Yrotation
			JOINT LeftAnkle
			{
				OFFSET 0.000000 0.000000 -19.194401
				CHANNELS 6 Xposition Yposition Zposition Zrotation Xrotation Yrotation
				End Site
				{
					OFFSET 0.000000 -8.134600 0.000000
				}
			}
		}
	}
	JOINT RightHip
	{
		OFFSET -3.115499 -0.679600 -2.320301
		CHANNELS 6 Xposition Yposition Zposition Zrotation Xrotation Yrotation
		JOINT RightKnee
		{
			OFFSET 0.000000 -0.000004 -17.680401
			CHANNELS 6 Xposition Yposition Zposition Zrotation Xrotation Yrotation
			JOINT RightAnkle
			{
				OFFSET 0.000000 0.000000 -16.993797
				CHANNELS 6 Xposition Yposition Zposition Zrotation Xrotation Yrotation
				End Site
				{
					OFFSET 0.000000 -8.842300 0.000000
				}
			}
		}
	}
}
MOTION
Frames: 5
Frame Time: 0.041667
-11.512600 40.375305 18.004393 3901.272040 43.883047 3.056617 -0.201599 0.334091 6.453197 37.440160 20.837568 20.674945 0.000004 0.000008 3.568000 -26.908323 -3.413304 -5.213009 -0.000009 0.000006 8.296395 -149.274809 -52.857014 -39.750919 -0.000003 0.000001 2.173899 -5.131731 -49.412003 5.491456 1.927607 0.221409 6.049004 -16.584350 -0.688386 13.879943 4.959708 -0.000001 0.000006 197.372933 181.554105 82.581324 0.000002 -0.000002 -8.654196 74.099343 -53.874278 34.583990 -0.000003 -0.000001 -13.864102 3710.616434 -155.151285 144.509440 -3.155703 -0.765001 6.687801 50.355614 22.349808 5.798872 -3.592896 -0.000005 0.000012 21.061722 -14.651201 142.229851 0.000001 -0.000004 -10.352388 -113.436472 -115.613710 -95.440637 0.000008 -0.000005 -12.750302 180.450374 36.517886 -37.513940 2.460592 -0.518102 -2.735507 112.721747 -13.381501 101.514554 0.000001 0.000002 -17.005898 -380.545574 197.893243 -51.310963 0.000001 0.000000 -19.194399 386.039341 45.758108 72.372302 -3.115499 -0.679601 -2.320308 -88.741301 -49.392479 -79.349709 -0.000002 -0.000008 -17.680397 -63.861558 193.758301 -311.498891 -0.000001 0.000009 -16.993795 326.524761 37.899261 -75.299366
-11.529197 40.418800 18.010206 3901.273351 43.836755 3.055350 -0.201603 0.334101 6.453197 37.395706 20.953163 20.645746 -0.000002 0.000008 3.567993 -26.906846 -3.458721 -5.226037 -0.000009 0.000008 8.296409 -149.133779 -52.883170 -39.561859 -0.000001 0.000010 2.173906 -5.209847 -49.353724 5.500167 1.927602 0.221408 6.049008 -16.500019 -0.735429 13.678898 4.959703 -0.000001 0.000000 197.272911 181.537754 82.710627 0.000001 0.000000 -8.654198 74.006575 -53.887669 34.510415 -0.000006 0.000003 -13.864104 3710.728340 -155.177363 144.599312 -3.155703 -0.764998 6.687812 50.354118 22.135286 5.967041 -3.592896 0.000001 0.000007 20.756451 -14.402600 141.903723 0.000000 -0.000005 -10.352397 -113.876493 -115.535764 -95.641015 0.000001 -0.000006 -12.750297 180.473023 36.742477 -37.476073 2.460601 -0.518102 -2.735504 112.725183 -13.253758 101.573881 0.000000 -0.000002 -17.005898 -380.943064 197.766502 -51.435416 -0.000001 -0.000000 -19.194399 385.686712 45.844732 72.319593 -3.115499 -0.679597 -2.320309 -88.516724 -49.414783 -79.274898 -0.000009 -0.000008 -17.680397 -63.895334 193.706337 -311.551620 0.000000 0.000000 -16.993793 326.578692 38.185723 -74.501654
-11.549102 40.470505 18.017694 3901.267232 43.769119 3.127930 -0.201597 0.334099 6.453207 37.361995 21.065989 20.569222 0.000001 -0.000005 3.567999 -26.940447 -3.500218 -5.245754 -0.000004 0.000004 8.296402 -148.882824 -52.891072 -39.293617 -0.000003 -0.000001 2.173900 -5.260345 -49.313792 5.548183 1.927602 0.221408 6.049005 -16.355170 -0.804646 13.425487 4.959707 0.000002 0.000003 197.157386 181.521375 82.853541 0.000006 -0.000001 -8.654200 73.958777 -53.898758 34.516088 -0.000002 0.000003 -13.864096 3710.802653 -155.192061 144.692025 -3.155702 -0.764997 6.687799 50.373676 21.819478 6.090794 -3.592892 -0.000001 0.000004 20.378327 -13.983672 141.565615 -0.000003 0.000000 -10.352398 -114.447394 -115.476779 -95.855087 -0.000004 -0.000004 -12.750299 180.449964 36.884797 -37.442120 2.460603 -0.518107 -2.735497 112.733037 -13.254112 101.657940 -0.000001 -0.000004 -17.005901 -381.308342 197.623341 -51.553896 -0.000001 0.000001 -19.194399 385.308210 45.901402 72.388592 -3.115494 -0.679603 -2.320304 -88.241031 -49.375144 -79.161141 -0.000005 -0.000008 -17.680395 -63.975295 193.664891 -311.589979 0.000003 0.000011 -16.993793 326.603472 38.564590 -73.401762
-11.571201 40.530602 18.023796 3901.291711 43.713525 3.205686 -0.201597 0.334096 6.453200 37.294151 21.161649 20.524111 0.000001 -0.000006 3.568003 -26.970185 -3.528503 -5.261626 -0.000009 0.000007 8.296399 -148.487834 -52.897291 -38.894362 -0.000007 -0.000002 2.173907 -5.310182 -49.290740 5.647715 1.927600 0.221407 6.048999 -16.250941 -0.807839 13.170778 4.959713 -0.000001 0.000005 197.056312 181.521798 82.971533 0.000004 0.000003 -8.654198 74.041880 -53.876611 34.605287 -0.000001 0.000000 -13.864101 3710.787790 -155.227606 144.768031 -3.155706 -0.764993 6.687800 50.382532 21.579494 6.023527 -3.592895 -0.000004 0.000004 20.004806 -13.554984 141.390120 0.000001 -0.000005 -10.352396 -115.067145 -115.490535 -96.036770 0.000001 -0.000006 -12.750298 180.475086 37.011586 -37.482671 2.460600 -0.518107 -2.735503 112.706905 -13.292153 101.743980 -0.000001 0.000003 -17.005898 -381.743070 197.398805 -51.664476 -0.000004 0.000004 -19.194399 384.941730 45.965916 72.329886 -3.115494 -0.679598 -2.320308 -88.027007 -49.277978 -79.096828 -0.000001 -0.000003 -17.680397 -64.067612 193.651094 -311.616152 -0.000002 0.000001 -16.993795 326.617378 39.059045 -71.963590
-11.596400 40.600204 18.027899 3901.377389 43.680023 3.280046 -0.201599 0.334100 6.453200 37.173841 21.222914 20.503885 -0.000000 0.000004 3.568001 -27.000400 -3.531602 -5.273888 -0.000003 0.000007 8.296402 -148.074226 -52.848923 -38.411929 -0.000009 -0.000003 2.173908 -5.343075 -49.271714 5.721976 1.927601 0.221406 6.049000 -16.167754 -0.754099 12.857204 4.959709 -0.000001 0.000004 196.967943 181.547084 83.104025 0.000000 -0.000002 -8.654196 74.285137 -53.768315 34.834054 -0.000004 -0.000001 -13.864105 3710.651842 -155.279201 144.803344 -3.155698 -0.765000 6.687797 50.432604 21.407824 5.958115 -3.592896 -0.000008 -0.000001 19.560849 -13.211524 141.163481 -0.000001 -0.000004 -10.352395 -115.666590 -115.550039 -96.135630 0.000000 -0.000008 -12.750303 180.519496 37.086708 -37.539573 2.460603 -0.518102 -2.735500 112.656293 -13.378960 101.864471 -0.000003 -0.000004 -17.005899 -382.176651 197.149708 -51.759109 -0.000003 0.000005 -19.194399 384.646994 46.035154 72.240684 -3.115497 -0.679600 -2.320302 -87.860651 -49.163510 -79.062083 -0.000012 -0.000004 -17.680397 -64.233373 193.622640 -311.640003 0.000004 -0.000001 -16.993797 326.624318 39.786573 -69.406811
